<mxfile host="app.diagrams.net" agent="Mozilla/5.0 (Windows NT 10.0; Win64; x64; rv:130.0) Gecko/20100101 Firefox/130.0" version="24.7.16">
  <diagram name="Page-1" id="XOWUU0wZIvXlAwY-6Cd7">
    <mxGraphModel dx="770" dy="1751" grid="1" gridSize="10" guides="1" tooltips="1" connect="1" arrows="1" fold="1" page="1" pageScale="1" pageWidth="850" pageHeight="1100" math="0" shadow="0">
      <root>
        <mxCell id="0" />
        <mxCell id="1" parent="0" />
        <mxCell id="kf8fraVBN5WM19ECNQnr-1" value="" style="shape=umlLifeline;participant=umlActor;perimeter=lifelinePerimeter;whiteSpace=wrap;html=1;container=1;collapsible=0;recursiveResize=0;verticalAlign=top;spacingTop=36;outlineConnect=0;fillColor=#cdeb8b;strokeColor=#36393d;" vertex="1" parent="1">
          <mxGeometry x="120" width="25" height="260" as="geometry" />
        </mxCell>
        <mxCell id="kf8fraVBN5WM19ECNQnr-4" value="Système" style="shape=umlLifeline;perimeter=lifelinePerimeter;whiteSpace=wrap;html=1;container=1;collapsible=0;recursiveResize=0;outlineConnect=0;fillColor=#ffff88;strokeColor=#36393d;" vertex="1" parent="1">
          <mxGeometry x="344" y="10" width="140" height="250" as="geometry" />
        </mxCell>
        <mxCell id="kf8fraVBN5WM19ECNQnr-8" value="&lt;div&gt;2: traitement de &lt;br&gt;&lt;/div&gt;&lt;div&gt;la requête&lt;br&gt;&lt;/div&gt;" style="html=1;align=left;spacingLeft=2;endArrow=block;rounded=0;edgeStyle=orthogonalEdgeStyle;curved=0;rounded=0;" edge="1" parent="kf8fraVBN5WM19ECNQnr-4">
          <mxGeometry x="0.1765" y="1" relative="1" as="geometry">
            <mxPoint x="75" y="90" as="sourcePoint" />
            <Array as="points">
              <mxPoint x="105" y="120" />
            </Array>
            <mxPoint x="80" y="120" as="targetPoint" />
            <mxPoint as="offset" />
          </mxGeometry>
        </mxCell>
        <mxCell id="kf8fraVBN5WM19ECNQnr-9" value="" style="html=1;points=[[0,0,0,0,5],[0,1,0,0,-5],[1,0,0,0,5],[1,1,0,0,-5]];perimeter=orthogonalPerimeter;outlineConnect=0;targetShapes=umlLifeline;portConstraint=eastwest;newEdgeStyle={&quot;curved&quot;:0,&quot;rounded&quot;:0};fillColor=#cce5ff;strokeColor=#36393d;" vertex="1" parent="kf8fraVBN5WM19ECNQnr-4">
          <mxGeometry x="65" y="80" width="10" height="150" as="geometry" />
        </mxCell>
        <mxCell id="kf8fraVBN5WM19ECNQnr-10" value="" style="html=1;points=[[0,0,0,0,5],[0,1,0,0,-5],[1,0,0,0,5],[1,1,0,0,-5]];perimeter=orthogonalPerimeter;outlineConnect=0;targetShapes=umlLifeline;portConstraint=eastwest;newEdgeStyle={&quot;curved&quot;:0,&quot;rounded&quot;:0};fillColor=#cce5ff;strokeColor=#36393d;" vertex="1" parent="kf8fraVBN5WM19ECNQnr-4">
          <mxGeometry x="71" y="110" width="10" height="20" as="geometry" />
        </mxCell>
        <mxCell id="kf8fraVBN5WM19ECNQnr-11" value="alt" style="shape=umlFrame;whiteSpace=wrap;html=1;fillColor=#ffcc99;strokeColor=#36393d;" vertex="1" parent="1">
          <mxGeometry x="52.5" y="149.5" width="467.5" height="100.5" as="geometry" />
        </mxCell>
        <mxCell id="kf8fraVBN5WM19ECNQnr-12" value="1: clique sur voir détail paiement et envoie IDs(user,paiement)" style="html=1;verticalAlign=bottom;endArrow=block;" edge="1" parent="1">
          <mxGeometry x="-0.0015" width="80" relative="1" as="geometry">
            <mxPoint x="135" y="90" as="sourcePoint" />
            <mxPoint x="413.5" y="90" as="targetPoint" />
            <Array as="points">
              <mxPoint x="250" y="90" />
            </Array>
            <mxPoint as="offset" />
          </mxGeometry>
        </mxCell>
        <mxCell id="kf8fraVBN5WM19ECNQnr-14" value="" style="html=1;verticalAlign=bottom;endArrow=open;endSize=8;" edge="1" parent="1">
          <mxGeometry relative="1" as="geometry">
            <mxPoint x="410" y="190" as="sourcePoint" />
            <mxPoint x="129.81034482758605" y="189.75999999999993" as="targetPoint" />
            <Array as="points">
              <mxPoint x="253.5" y="189.76" />
            </Array>
          </mxGeometry>
        </mxCell>
        <mxCell id="kf8fraVBN5WM19ECNQnr-15" value="&lt;div style=&quot;font-size: 10px;&quot;&gt;&lt;font style=&quot;font-size: 10px;&quot;&gt;Diagramme de séquence Système : Voir le détail de paiement&lt;br&gt;&lt;/font&gt;&lt;/div&gt;" style="shape=umlFrame;whiteSpace=wrap;html=1;pointerEvents=0;width=310;height=20;fillColor=#f9f7ed;strokeColor=#36393d;" vertex="1" parent="1">
          <mxGeometry x="30" y="-50" width="510" height="310" as="geometry" />
        </mxCell>
        <mxCell id="kf8fraVBN5WM19ECNQnr-16" value="Profil d&#39;entreprise" style="text;html=1;align=center;verticalAlign=middle;resizable=0;points=[];autosize=1;strokeColor=none;fillColor=none;" vertex="1" parent="1">
          <mxGeometry x="72.5" y="40" width="120" height="30" as="geometry" />
        </mxCell>
        <mxCell id="kf8fraVBN5WM19ECNQnr-17" value="4: message d&#39;erreur" style="html=1;verticalAlign=bottom;endArrow=open;endSize=11;startSize=0;jumpSize=14;" edge="1" parent="1">
          <mxGeometry relative="1" as="geometry">
            <mxPoint x="408" y="236" as="sourcePoint" />
            <mxPoint x="129.81034482758605" y="235.99999999999994" as="targetPoint" />
            <Array as="points">
              <mxPoint x="254" y="236" />
            </Array>
          </mxGeometry>
        </mxCell>
        <mxCell id="kf8fraVBN5WM19ECNQnr-18" value="3. affiche le détail paiement" style="text;html=1;align=center;verticalAlign=middle;resizable=0;points=[];autosize=1;strokeColor=none;fillColor=none;" vertex="1" parent="1">
          <mxGeometry x="186.5" y="160" width="170" height="30" as="geometry" />
        </mxCell>
        <mxCell id="kf8fraVBN5WM19ECNQnr-19" value="" style="line;strokeWidth=1;fillColor=none;align=left;verticalAlign=middle;spacingTop=-1;spacingLeft=3;spacingRight=3;rotatable=0;labelPosition=right;points=[];portConstraint=eastwest;strokeColor=inherit;dashed=1;" vertex="1" parent="1">
          <mxGeometry x="52.5" y="208" width="465" height="8" as="geometry" />
        </mxCell>
        <mxCell id="kf8fraVBN5WM19ECNQnr-20" value="[Succès]" style="text;html=1;align=center;verticalAlign=middle;resizable=0;points=[];autosize=1;strokeColor=none;" vertex="1" parent="1">
          <mxGeometry x="61.5" y="180" width="60" height="20" as="geometry" />
        </mxCell>
        <mxCell id="kf8fraVBN5WM19ECNQnr-21" value="[Echec]" style="text;html=1;align=center;verticalAlign=middle;resizable=0;points=[];autosize=1;strokeColor=none;" vertex="1" parent="1">
          <mxGeometry x="61.5" y="216" width="60" height="20" as="geometry" />
        </mxCell>
      </root>
    </mxGraphModel>
  </diagram>
</mxfile>
